<?xml version="1.0" encoding="UTF-8"?>
<!--
  Sprite d'icônes inlinées via <use href="/assets/illustrations/icons.svg#id">.
  Stroke 1.6, currentColor pour s'adapter à n'importe quel contexte.
-->
<svg xmlns="http://www.w3.org/2000/svg" style="display:none">
  <symbol id="icon-shield" viewBox="0 0 24 24" fill="none" stroke="currentColor" stroke-width="1.6" stroke-linecap="round" stroke-linejoin="round">
    <path d="M12 3l8 3v6c0 5-3.5 8.5-8 9-4.5-.5-8-4-8-9V6l8-3z"/>
    <path d="M9 12l2 2 4-4"/>
  </symbol>
  <symbol id="icon-clock" viewBox="0 0 24 24" fill="none" stroke="currentColor" stroke-width="1.6" stroke-linecap="round" stroke-linejoin="round">
    <circle cx="12" cy="12" r="9"/>
    <path d="M12 7v5l3 2"/>
  </symbol>
  <symbol id="icon-file" viewBox="0 0 24 24" fill="none" stroke="currentColor" stroke-width="1.6" stroke-linecap="round" stroke-linejoin="round">
    <path d="M14 3H7a2 2 0 0 0-2 2v14a2 2 0 0 0 2 2h10a2 2 0 0 0 2-2V8z"/>
    <path d="M14 3v5h5"/>
    <path d="M9 13h6M9 17h6"/>
  </symbol>
  <symbol id="icon-handshake" viewBox="0 0 24 24" fill="none" stroke="currentColor" stroke-width="1.6" stroke-linecap="round" stroke-linejoin="round">
    <path d="M3 12l4-4 5 5 5-5 4 4-7 7-4-4-7-3z"/>
  </symbol>
  <symbol id="icon-award" viewBox="0 0 24 24" fill="none" stroke="currentColor" stroke-width="1.6" stroke-linecap="round" stroke-linejoin="round">
    <circle cx="12" cy="9" r="6"/>
    <path d="M8 14l-2 7 6-3 6 3-2-7"/>
  </symbol>
  <symbol id="icon-pin" viewBox="0 0 24 24" fill="none" stroke="currentColor" stroke-width="1.6" stroke-linecap="round" stroke-linejoin="round">
    <path d="M12 22s8-7.5 8-13a8 8 0 1 0-16 0c0 5.5 8 13 8 13z"/>
    <circle cx="12" cy="9" r="2.5"/>
  </symbol>
  <symbol id="icon-mail" viewBox="0 0 24 24" fill="none" stroke="currentColor" stroke-width="1.6" stroke-linecap="round" stroke-linejoin="round">
    <rect x="3" y="5" width="18" height="14" rx="1"/>
    <path d="M3 7l9 6 9-6"/>
  </symbol>
  <symbol id="icon-phone" viewBox="0 0 24 24" fill="none" stroke="currentColor" stroke-width="1.6" stroke-linecap="round" stroke-linejoin="round">
    <path d="M5 3h3l2 5-2 1a12 12 0 0 0 7 7l1-2 5 2v3a2 2 0 0 1-2 2A18 18 0 0 1 3 5a2 2 0 0 1 2-2z"/>
  </symbol>
  <symbol id="icon-check" viewBox="0 0 24 24" fill="none" stroke="currentColor" stroke-width="2" stroke-linecap="round" stroke-linejoin="round">
    <path d="M4 12l5 5 11-11"/>
  </symbol>
  <symbol id="icon-arrow" viewBox="0 0 24 24" fill="none" stroke="currentColor" stroke-width="1.6" stroke-linecap="round" stroke-linejoin="round">
    <path d="M5 12h14M13 5l7 7-7 7"/>
  </symbol>
  <symbol id="icon-burger" viewBox="0 0 24 24" fill="none" stroke="currentColor" stroke-width="1.6" stroke-linecap="round">
    <path d="M4 7h16M4 12h16M4 17h16"/>
  </symbol>
  <symbol id="icon-strata" viewBox="0 0 24 24" fill="none" stroke="currentColor" stroke-width="1.6" stroke-linecap="round" stroke-linejoin="round">
    <path d="M3 6c4-2 8 2 12 0s5-2 6-1"/>
    <path d="M3 12c4-2 8 2 12 0s5-2 6-1"/>
    <path d="M3 18c4-2 8 2 12 0s5-2 6-1"/>
  </symbol>
</svg>
